<?xml version="1.0" encoding="UTF-8"?>
<svg id="Calque_2" xmlns="http://www.w3.org/2000/svg" version="1.1" viewBox="0 0 21.6 21.6">
  <!-- Generator: Adobe Illustrator 30.3.0, SVG Export Plug-In . SVG Version: 2.1.3 Build 182)  -->
  <g id="Calque_1-2">
    <path d="M10.3,15.8v-.5c0-.3.2-.5.5-.5h0c.3,0,.5.2.5.5v.5c0,5,4.4,5,4.4,5,3.1,0,5-2,5-5,0,0,0-4.4-5-4.4h-.5c-.3,0-.5-.2-.5-.5s.2-.5.5-.5h.5c5,0,5-4.4,5-4.4,0-3-1.9-5-5-5,0,0-4.4,0-4.4,5v.5c0,.3-.2.5-.5.5h0c-.3,0-.5-.2-.5-.5v-.5c0-5-4.4-5-4.4-5C2.8.9.9,2.9.9,5.8c0,0,0,4.4,5,4.4h.5c.3,0,.5.2.5.5s-.2.5-.5.5h-.5C.9,11.3.9,15.8.9,15.8c0,3,1.9,5,5,5,0,0,4.4,0,4.4-5h0ZM4.7,6.6c-.5-.5-.5-1.4,0-1.9.5-.5,1.4-.5,1.9,0,.5.5.9,2.2.6,2.5-.3.3-2,0-2.5-.6h0ZM14.3,7.3c-.3-.3,0-2,.6-2.5.5-.5,1.4-.5,1.9,0,.5.5.5,1.4,0,1.9-.5.5-2.2.9-2.5.6h0ZM10.4,11.8c-.4,0-.7-.3-.7-.7v-.7c0-.4.3-.7.7-.7h.7c.4,0,.7.3.7.7v.7c0,.4-.3.7-.7.7h-.7ZM16.8,15c.5.5.5,1.4,0,1.9-.5.5-1.4.5-1.9,0-.5-.5-.9-2.2-.6-2.5.3-.3,2,0,2.5.6h0ZM4.7,16.8c-.5-.5-.5-1.4,0-1.9.5-.5,2.2-.9,2.5-.6.3.3,0,2-.6,2.5-.5.5-1.4.5-1.9,0h0Z"/>
  </g>
</svg>